<?xml version="1.0" encoding="UTF-8"?>
<svg viewBox="0 0 600 91.35" xmlns="http://www.w3.org/2000/svg">
  <title>GroundForce IT Logo</title>
  <path d="M0 82.35h600v9H0z" class="bar"></path>
  <path d="M527.11 9.4a8.81 8.81 0 1 1-17.61 0 8.81 8.81 0 1 1 17.61 0zm-1.91 0a6.9 6.9 0 1 0-13.79 0 6.9 6.9 0 1 0 13.79 0zm-5.42.66l2.57 4H520l-2.12-3.68h-.83v3.68h-2v-9.6h2.71c2.85 0 4.24 1 4.24 2.92a2.81 2.81 0 0 1-2.22 2.68zm-1.67-1.22c1.15 0 1.88-.42 1.88-1.46S519.36 6 518 6h-1v2.84z" class="registered"></path>
  <path d="M534.5.3h16.29v72H534.5zm65.5 0v11.88h-13.42v60.1h-16.4v-60.1h-13.31V.3z" class="it"></path>
  <path d="M327.55 12.18h-22.83V32h19.16v11.2h-19.16v29.08h-16.4V.3h39.23zm19.73 4.07h13.65q7.57 0 10.84 3.23t3.23 9.34v30.9q0 6.11-3.27 9.34t-10.84 3.23h-13.61q-7.57 0-10.84-3.23t-3.27-9.34v-30.9q0-6.11 3.27-9.34t10.84-3.23zm12 41.88V30.4q0-2.83-3.1-2.83H352q-3.1 0-3.1 2.83v27.73q0 2.83 3.1 2.83h4.24q3.08.04 3.08-2.83zm51.66-42.22h1.95v13.7h-5.62q-7.23 0-7.23 7.92v34.75H384.1v-56h15.71v8a10.91 10.91 0 0 1 3.79-6.06 11.31 11.31 0 0 1 7.34-2.31zm47.15 20.49h-15.6V31q0-2.83-3.1-2.83h-3q-3.1 0-3.1 2.83v26.6q0 2.83 3.1 2.83h3q3.1 0 3.1-2.83v-5.47h15.6v7.58q0 12.56-14.57 12.56h-11.7q-14.57 0-14.57-12.56V28.82q0-12.56 14.57-12.56h11.7q14.57 0 14.57 12.56zm21.22-20.15h13q14.57 0 14.57 12.56v19.81h-26.77v9.62a2.71 2.71 0 0 0 .69 2.09 3.6 3.6 0 0 0 2.41.62h5.16a3.2 3.2 0 0 0 2.29-.68 3.09 3.09 0 0 0 .69-2.26v-3.73h15.37v5.43q0 12.56-14.57 12.56h-12.84q-14.45 0-14.45-12.56V28.82q0-12.57 14.45-12.57zm.8 23.09h11.36v-9.05a2.72 2.72 0 0 0-.69-2.09 3.4 3.4 0 0 0-2.29-.62h-5.28a3.61 3.61 0 0 0-2.41.62 2.72 2.72 0 0 0-.69 2.09z" class="force"></path>
  <path d="M44.09 23.61h-16.4v-9.39q0-2.83-3.1-2.83h-4.7q-3.1 0-3.1 2.83v44.14a2.88 2.88 0 0 0 .69 2.21 3.6 3.6 0 0 0 2.41.62h4.7a3.6 3.6 0 0 0 2.41-.63 2.88 2.88 0 0 0 .69-2.21v-14H22V33.57h22.09v26.26q0 12.45-14.45 12.45h-14.8Q.39 72.28.39 59.83V12.75Q.39.3 14.84.3h14.8q14.45 0 14.45 12.45zm35.68-7.7h1.95v13.7H76.1q-7.23 0-7.23 7.92v34.75H52.93v-56h15.71v8a10.91 10.91 0 0 1 3.79-6.06 11.31 11.31 0 0 1 7.34-2.31zm20.87.34h13.66q7.57 0 10.84 3.23t3.27 9.34v30.9q0 6.11-3.27 9.34t-10.84 3.22h-13.66q-7.57 0-10.84-3.23t-3.27-9.34V28.82q0-6.11 3.27-9.34t10.84-3.23zm12 41.88V30.4q0-2.83-3.1-2.83h-4.24q-3.1 0-3.1 2.83v27.73q0 2.83 3.1 2.83h4.24q3.15.04 3.15-2.83zm49.61-41.88h15.95v56h-15.72v-6.31q-1.61 6.34-9.29 6.34h-2.75Q137 72.28 137 59.72V16.25h16.06v41.32q0 2.83 3.1 2.83h2.64q3.44 0 3.44-3.62zm50.47 0h2.87q13.41 0 13.41 12.57v43.46h-16.05V31q0-2.83-3.1-2.83h-2.75q-3.33 0-3.33 3.62v40.49h-15.94v-56h15.71v6.34q1.61-6.36 9.18-6.37zM262.39-.3h15.95v72.58h-15.72v-6.34q-1.61 6.34-9.29 6.34h-2.75q-13.42 0-13.42-12.56v-31q0-12.45 13.42-12.45h2.75q7.34 0 9.06 5.55zm-6.08 60.69h2.64q3.44 0 3.44-3.62v-25q0-3.62-3.44-3.62h-2.64a3.61 3.61 0 0 0-2.41.62 2.89 2.89 0 0 0-.69 2.21v26.6q0 2.82 3.1 2.81z" class="ground"></path>
</svg>