<?xml version="1.0" encoding="UTF-8"?> <svg xmlns="http://www.w3.org/2000/svg" viewBox="0 0 359 197" fill="none"><g clip-path="url(#clip0_7_65)"><path d="M286.6 155.5V165V169H359V153.9V150.6V144.7C333.6 140.4 310 147.1 286.6 155.5Z" fill="#BF0A30"></path><path d="M349.6 96.4V84.7H318.1V60.5H356.2V32.2H286.7V106.7C307.3 99.3 328.1 93.6 349.6 96.4Z" fill="#BF0A30"></path><path d="M253.9 148.2V157.7C263.1 154.6 272.2 151.2 281.3 147.8V138.3C272.1 141.7 263 145.1 253.9 148.2Z" fill="#BF0A30"></path><path d="M286.6 145.9C297 142.2 307.4 138.9 318.1 136.7V127.3C307.5 129.4 297 132.7 286.6 136.4V145.9Z" fill="#BF0A30"></path><path d="M220 156.7L221.8 165.8C227.4 165 232.9 163.8 238.4 162.4L240.3 152.4C233.5 154.3 226.8 155.8 220 156.7Z" fill="#BF0A30"></path><path d="M244.1 132.4C235 135.2 225.9 137.4 216.5 138.5L218.3 147.6C226.4 146.6 234.3 144.7 242.2 142.4L244.1 132.4Z" fill="#BF0A30"></path><path d="M286.6 117.3V126.8C297 123.2 307.4 119.9 318.1 117.8V113.8H349.6V106.7C327.5 104.8 306.9 110.3 286.6 117.3Z" fill="#BF0A30"></path><path d="M205.4 167.1V157.9C196.5 158 187.4 156.9 178 154.2V163.3C187.4 166 196.5 167.1 205.4 167.1Z" fill="#BF0A30"></path><path d="M205.4 148.6V139.3C196.5 139.5 187.4 138.5 178 135.9V145C187.4 147.6 196.5 148.7 205.4 148.6Z" fill="#BF0A30"></path><path d="M205.4 129.6V107.4C205.4 104 205.3 100.6 205.1 97.2C204.9 93.8 204.6 90.4 204.3 87.1H206.6L214.6 129C225.3 127.7 235.7 125 246.1 121.6L252.7 87.1H255C254.6 90.3 254.3 93.7 254.1 97.1C253.9 100.5 253.8 104 253.8 107.5V118.9C263 115.7 272.1 112.1 281.2 108.7V32.2H245.4L233.8 79C232.8 83.2 232.1 86.6 231.6 89.4C231.1 92.2 230.8 94.8 230.5 97.4H228.9C228.5 94.8 228.1 92 227.5 89C226.9 85.9 226.2 82.7 225.4 79.2L213.9 32.2H178.1V126.7C187.4 129.1 196.5 130 205.4 129.6Z" fill="#BF0A30"></path><path d="M281.2 128.8V119.3C272.1 122.6 263 126.1 253.8 129.2V138.7C263 135.6 272.1 132.1 281.2 128.8Z" fill="#BF0A30"></path><path d="M253.9 167.2V169H281.3V157.4C272.1 160.7 263 164.2 253.9 167.2Z" fill="#BF0A30"></path><path d="M168.7 121.7L153.1 73.8L139.6 32.2H116.2L102.7 73.8L87.1 121.7L71.7 169H103.5L127.8 151.3L152.1 169H184L168.7 121.7ZM137.7 113.9L143.8 132.7L127.8 121.1L111.8 132.7L117.9 113.9L101.9 102.3H121.7L127.8 83.5L133.9 102.3H153.7L137.7 113.9Z" fill="#1E407A"></path><path d="M-0.0999756 124.7H28.5C28.5 131.6 29.6 136.7 31.8 140.1C34 143.5 37.3 145.1 41.8 145.1C45.3 145.1 48.1 144.1 50.2 142.1C52.3 140.1 53.4 137.4 53.4 134.1C53.4 129.5 48.7 123.3 39.1 115.5C37.5 114.3 36.4 113.3 35.6 112.6L23 102.2C15.5 95.8 10.2 89.9 7.00002 84.2C3.80002 78.6 2.20003 72.5 2.20003 65.8C2.20003 54.7 5.70002 45.9 12.8 39.4C19.9 32.9 29.5 29.6 41.6 29.6C54.1 29.6 63.9 33.1 71.1 40.1C78.2 47.1 81.8 56.7 81.8 69V71.7H53.1V71C53.1 66 52.2 62.3 50.3 59.8C48.5 57.3 45.6 56.1 41.9 56.1C39.1 56.1 36.9 56.9 35.2 58.4C33.5 60 32.7 62 32.7 64.5C32.7 68.4 37.5 74.2 47.2 82.1C49.1 83.7 50.6 84.9 51.5 85.7C65.3 97 74.2 105.7 78.1 111.9C82 118.1 83.9 124.9 83.9 132.4C83.9 144.4 80.1 154 72.4 161.1C64.7 168.2 54.3 171.8 41.3 171.8C28.4 171.8 18.3 167.9 11 160C3.70002 152.1 2.47955e-05 141.3 2.47955e-05 127.5V124.7H-0.0999756Z" fill="#BF0A30"></path><path d="M0.400024 196.2L8.30002 175.5H11.3L19.7 196.2H16.6L14.2 190H5.50002L3.30002 196.2H0.400024ZM6.30002 187.7H13.4L11.3 181.9C10.6 180.2 10.1 178.7 9.80002 177.6C9.50002 178.9 9.10003 180.3 8.70003 181.6L6.30002 187.7Z" fill="#1E407A"></path><path d="M21.6 196.2V181.2H23.9V183.3C24.4 182.6 25 182 25.8 181.5C26.6 181.1 27.5 180.8 28.5 180.8C29.6 180.8 30.5 181 31.2 181.5C31.9 182 32.4 182.6 32.7 183.4C33.9 181.7 35.4 180.8 37.4 180.8C38.9 180.8 40 181.2 40.8 182C41.6 182.8 42 184.1 42 185.8V196.1H39.5V186.7C39.5 185.7 39.4 185 39.3 184.5C39.1 184.1 38.8 183.7 38.4 183.4C38 183.1 37.5 183 36.9 183C35.8 183 35 183.3 34.3 184.1C33.6 184.8 33.3 185.9 33.3 187.5V196.2H30.8V186.5C30.8 185.4 30.6 184.5 30.2 184C29.8 183.4 29.1 183.2 28.2 183.2C27.5 183.2 26.8 183.4 26.2 183.8C25.6 184.2 25.1 184.7 24.9 185.4C24.6 186.1 24.5 187.2 24.5 188.5V196.3H21.6V196.2Z" fill="#1E407A"></path><path d="M55.9001 191.3L58.5 191.7C58.1 193.2 57.3 194.4 56.2 195.3C55.1 196.1 53.7001 196.6 51.9001 196.6C49.7001 196.6 48.0001 195.9 46.7001 194.6C45.4001 193.3 44.8 191.4 44.8 188.9C44.8 186.4 45.4001 184.4 46.7001 183.1C48.0001 181.7 49.7 181 51.7 181C53.7 181 55.3 181.7 56.6 183C57.9 184.4 58.5 186.3 58.5 188.7C58.5 188.9 58.5 189.1 58.5 189.4H47.4001C47.5001 191 48 192.3 48.8 193.2C49.6 194.1 50.7001 194.5 51.9001 194.5C52.8001 194.5 53.6001 194.3 54.3001 193.8C55.0001 193.2 55.5001 192.4 55.9001 191.3ZM47.6 187.2H55.9001C55.8001 186 55.5001 185 54.9001 184.4C54.1001 183.4 53.0001 183 51.8001 183C50.6001 183 49.7001 183.4 48.9001 184.2C48.1001 184.9 47.7 186 47.6 187.2Z" fill="#1E407A"></path><path d="M61.7 196.2V181.2H64V183.5C64.6 182.4 65.1 181.7 65.6 181.4C66.1 181.1 66.6 180.9 67.2 180.9C68.1 180.9 68.9 181.2 69.8 181.7L68.9 184C68.3 183.7 67.7 183.5 67.1 183.5C66.6 183.5 66.1 183.7 65.6 184C65.2 184.3 64.9 184.8 64.7 185.4C64.4 186.3 64.3 187.3 64.3 188.4V196.2H61.7V196.2Z" fill="#1E407A"></path><path d="M71.4 178.4V175.5H73.9V178.4H71.4ZM71.4 196.2V181.2H73.9V196.2H71.4Z" fill="#1E407A"></path><path d="M87.5 190.7L90 191.1C89.7 192.8 89 194.1 87.9 195.1C86.8 196.1 85.4 196.5 83.8 196.5C81.8 196.5 80.1 195.8 78.9 194.5C77.7 193.2 77 191.3 77 188.8C77 187.2 77.3 185.8 77.8 184.6C78.3 183.4 79.2 182.5 80.2 181.9C81.3 181.3 82.5 181 83.8 181C85.4 181 86.8 181.4 87.8 182.2C88.8 183 89.5 184.2 89.8 185.7L87.3 186.1C87.1 185.1 86.6 184.4 86.1 183.9C85.5 183.4 84.8 183.1 83.9 183.1C82.6 183.1 81.6 183.6 80.8 184.5C80 185.4 79.6 186.9 79.6 188.8C79.6 190.8 80 192.3 80.7 193.2C81.5 194.1 82.5 194.6 83.7 194.6C84.7 194.6 85.5 194.3 86.2 193.7C86.9 192.9 87.4 192 87.5 190.7Z" fill="#1E407A"></path><path d="M102 194.3C101.1 195.1 100.2 195.7 99.3 196C98.4 196.3 97.5 196.5 96.5 196.5C94.8 196.5 93.6 196.1 92.7 195.3C91.8 194.5 91.4 193.5 91.4 192.2C91.4 191.5 91.6 190.8 91.9 190.2C92.2 189.6 92.7 189.1 93.2 188.7C93.7 188.3 94.4 188.1 95 187.9C95.5 187.8 96.3 187.6 97.3 187.5C99.4 187.3 100.9 187 101.9 186.6C101.9 186.3 101.9 186 101.9 185.9C101.9 184.9 101.7 184.1 101.2 183.7C100.5 183.1 99.6 182.8 98.3 182.8C97.1 182.8 96.2 183 95.6 183.4C95 183.8 94.6 184.6 94.3 185.6L91.8 185.2C92 184.1 92.4 183.3 92.9 182.6C93.4 181.9 94.2 181.4 95.1 181.1C96.1 180.7 97.2 180.6 98.5 180.6C99.8 180.6 100.8 180.7 101.6 181.1C102.4 181.4 103 181.8 103.4 182.2C103.8 182.7 104 183.2 104.2 183.9C104.3 184.3 104.3 185.1 104.3 186.2V189.6C104.3 191.9 104.4 193.4 104.5 194.1C104.6 194.7 104.8 195.3 105.1 195.9H102.5C102.2 195.7 102.1 195 102 194.3ZM101.9 188.7C101 189.1 99.6 189.4 97.7 189.6C96.6 189.7 95.9 189.9 95.5 190.1C95.1 190.3 94.7 190.6 94.5 190.9C94.3 191.3 94.1 191.7 94.1 192.1C94.1 192.8 94.4 193.3 94.9 193.8C95.4 194.2 96.2 194.5 97.2 194.5C98.2 194.5 99.1 194.3 99.8 193.9C100.6 193.5 101.1 192.9 101.5 192.2C101.8 191.6 101.9 190.8 101.9 189.7V188.7Z" fill="#1E407A"></path><path d="M108.3 196.2V181.2H110.6V183.3C111.7 181.7 113.3 180.9 115.3 180.9C116.2 180.9 117 181.1 117.8 181.4C118.6 181.7 119.1 182.2 119.5 182.7C119.9 183.2 120.1 183.9 120.3 184.6C120.4 185.1 120.4 185.9 120.4 187.1V196.3H117.9V187.2C117.9 186.2 117.8 185.4 117.6 184.9C117.4 184.4 117.1 184 116.6 183.7C116.1 183.4 115.5 183.2 114.8 183.2C113.7 183.2 112.8 183.5 112 184.2C111.2 184.9 110.8 186.2 110.8 188.1V196.3H108.3V196.2Z" fill="#1E407A"></path><path d="M132.6 196.2V175.5H136.7L141.6 190.1C142.1 191.5 142.4 192.5 142.6 193.2C142.8 192.4 143.2 191.3 143.7 189.9L148.7 175.5H152.4V196.2H149.8V178.9L143.8 196.2H141.3L135.3 178.6V196.2H132.6V196.2Z" fill="#1E407A"></path><path d="M156.4 178.4V175.5H158.9V178.4H156.4ZM156.4 196.2V181.2H158.9V196.2H156.4Z" fill="#1E407A"></path><path d="M162.8 196.2V175.5H165.3V196.2H162.8Z" fill="#1E407A"></path><path d="M169.3 178.4V175.5H171.8V178.4H169.3ZM169.3 196.2V181.2H171.8V196.2H169.3Z" fill="#1E407A"></path><path d="M181.2 193.9L181.6 196.1C180.9 196.2 180.3 196.3 179.7 196.3C178.8 196.3 178.1 196.2 177.6 195.9C177.1 195.6 176.7 195.2 176.5 194.7C176.3 194.2 176.2 193.2 176.2 191.7V183.1H174.3V181.1H176.2V177.4L178.7 175.9V181.1H181.2V183.1H178.7V191.9C178.7 192.6 178.7 193.1 178.8 193.3C178.9 193.5 179 193.7 179.2 193.8C179.4 193.9 179.7 194 180.1 194C180.4 194 180.8 194 181.2 193.9Z" fill="#1E407A"></path><path d="M193.5 194.3C192.6 195.1 191.7 195.7 190.8 196C189.9 196.3 189 196.5 188 196.5C186.3 196.5 185.1 196.1 184.2 195.3C183.3 194.5 182.9 193.5 182.9 192.2C182.9 191.5 183.1 190.8 183.4 190.2C183.7 189.6 184.2 189.1 184.7 188.7C185.2 188.3 185.9 188.1 186.5 187.9C187 187.8 187.8 187.6 188.8 187.5C190.9 187.3 192.4 187 193.4 186.6C193.4 186.3 193.4 186 193.4 185.9C193.4 184.9 193.2 184.1 192.7 183.7C192.1 183.1 191.1 182.8 189.8 182.8C188.6 182.8 187.7 183 187.2 183.4C186.6 183.8 186.2 184.6 185.9 185.6L183.4 185.2C183.6 184.1 184 183.3 184.5 182.6C185 181.9 185.8 181.4 186.7 181.1C187.7 180.7 188.8 180.6 190.1 180.6C191.4 180.6 192.4 180.7 193.2 181.1C194 181.4 194.6 181.8 195 182.2C195.4 182.7 195.6 183.2 195.8 183.9C195.9 184.3 195.9 185.1 195.9 186.2V189.6C195.9 191.9 196 193.4 196.1 194.1C196.2 194.7 196.4 195.3 196.7 195.9H194C193.7 195.7 193.6 195 193.5 194.3ZM193.4 188.7C192.5 189.1 191.1 189.4 189.2 189.6C188.1 189.7 187.4 189.9 187 190.1C186.6 190.3 186.2 190.6 186 190.9C185.8 191.3 185.6 191.7 185.6 192.1C185.6 192.8 185.9 193.3 186.4 193.8C186.9 194.2 187.7 194.5 188.7 194.5C189.7 194.5 190.6 194.3 191.3 193.9C192.1 193.5 192.6 192.9 193 192.2C193.3 191.6 193.4 190.8 193.4 189.7V188.7Z" fill="#1E407A"></path><path d="M199.8 196.2V181.2H202.1V183.5C202.7 182.4 203.2 181.7 203.7 181.4C204.2 181.1 204.7 180.9 205.3 180.9C206.2 180.9 207 181.2 207.9 181.7L207 184C206.4 183.7 205.8 183.5 205.2 183.5C204.7 183.5 204.2 183.7 203.7 184C203.3 184.3 202.9 184.8 202.8 185.4C202.5 186.3 202.4 187.3 202.4 188.4V196.2H199.8V196.2Z" fill="#1E407A"></path><path d="M209.3 202L208.9 199.6C209.5 199.8 210 199.8 210.4 199.8C211 199.8 211.4 199.7 211.8 199.5C212.1 199.3 212.4 199 212.6 198.7C212.8 198.4 213 197.8 213.4 196.8C213.4 196.7 213.5 196.5 213.6 196.2L207.9 181.2H210.6L213.7 189.9C214.1 191 214.5 192.2 214.8 193.4C215.1 192.2 215.5 191.1 215.9 190L219.1 181.3H221.6L215.9 196.5C215.3 198.1 214.8 199.3 214.5 199.9C214 200.7 213.5 201.3 212.9 201.7C212.3 202.1 211.6 202.3 210.8 202.3C210.4 202.3 209.9 202.2 209.3 202Z" fill="#1E407A"></path><path d="M232.3 196.2V175.5H247.2V178H235V184.3H246.4V186.8H235V193.8H247.7V196.3H232.3V196.2Z" fill="#1E407A"></path><path d="M251.2 196.2V181.2H253.5V183.3C254.6 181.7 256.2 180.9 258.3 180.9C259.2 180.9 260 181.1 260.8 181.4C261.6 181.7 262.1 182.2 262.5 182.7C262.9 183.2 263.1 183.9 263.3 184.6C263.4 185.1 263.4 185.9 263.4 187.1V196.3H260.9V187.2C260.9 186.2 260.8 185.4 260.6 184.9C260.4 184.4 260.1 184 259.6 183.7C259.1 183.4 258.5 183.2 257.8 183.2C256.7 183.2 255.8 183.5 255 184.2C254.2 184.9 253.8 186.2 253.8 188.1V196.3H251.2V196.2Z" fill="#1E407A"></path><path d="M266.8 197.4L269.3 197.8C269.4 198.6 269.7 199.1 270.2 199.5C270.8 200 271.7 200.2 272.8 200.2C274 200.2 274.9 200 275.6 199.5C276.2 199 276.7 198.4 276.9 197.5C277 197 277.1 195.9 277.1 194.2C276 195.5 274.6 196.2 272.9 196.2C270.8 196.2 269.2 195.5 268.1 194C267 192.5 266.4 190.7 266.4 188.7C266.4 187.3 266.7 186 267.2 184.8C267.7 183.6 268.5 182.7 269.5 182C270.5 181.3 271.6 181 273 181C274.8 181 276.2 181.7 277.4 183.2V181.3H279.7V194.2C279.7 196.5 279.5 198.2 279 199.2C278.5 200.2 277.8 200.9 276.7 201.5C275.7 202.1 274.4 202.3 272.9 202.3C271.1 202.3 269.7 201.9 268.6 201.1C267.3 200.2 266.7 199 266.8 197.4ZM268.9 188.5C268.9 190.5 269.3 191.9 270.1 192.8C270.9 193.7 271.9 194.2 273 194.2C274.2 194.2 275.1 193.8 275.9 192.9C276.7 192 277.1 190.6 277.1 188.7C277.1 186.9 276.7 185.5 275.9 184.6C275.1 183.7 274.1 183.2 273 183.2C271.9 183.2 270.9 183.7 270.1 184.6C269.3 185.3 268.9 186.7 268.9 188.5Z" fill="#1E407A"></path><path d="M283.3 178.4V175.5H285.8V178.4H283.3ZM283.3 196.2V181.2H285.8V196.2H283.3Z" fill="#1E407A"></path><path d="M289.7 196.2V181.2H292V183.3C293.1 181.7 294.7 180.9 296.8 180.9C297.7 180.9 298.5 181.1 299.3 181.4C300.1 181.7 300.6 182.2 301 182.7C301.4 183.2 301.6 183.9 301.8 184.6C301.9 185.1 301.9 185.9 301.9 187.1V196.3H299.4V187.2C299.4 186.2 299.3 185.4 299.1 184.9C298.9 184.4 298.6 184 298.1 183.7C297.6 183.4 297 183.2 296.3 183.2C295.2 183.2 294.3 183.5 293.5 184.2C292.7 184.9 292.3 186.2 292.3 188.1V196.3H289.7V196.2Z" fill="#1E407A"></path><path d="M316 191.3L318.6 191.7C318.2 193.2 317.4 194.4 316.3 195.3C315.2 196.1 313.8 196.6 312 196.6C309.8 196.6 308.1 195.9 306.8 194.6C305.5 193.3 304.9 191.4 304.9 188.9C304.9 186.4 305.5 184.4 306.8 183.1C308.1 181.7 309.8 181 311.8 181C313.8 181 315.4 181.7 316.7 183C318 184.4 318.6 186.3 318.6 188.7C318.6 188.9 318.6 189.1 318.6 189.4H307.5C307.6 191 308.1 192.3 308.9 193.2C309.7 194.1 310.8 194.5 312 194.5C312.9 194.5 313.7 194.3 314.4 193.8C315.1 193.2 315.6 192.4 316 191.3ZM307.7 187.2H316C315.9 186 315.6 185 315 184.4C314.2 183.4 313.1 183 311.9 183C310.7 183 309.8 183.4 309 184.2C308.2 184.9 307.8 186 307.7 187.2Z" fill="#1E407A"></path><path d="M332.1 191.3L334.7 191.7C334.3 193.2 333.5 194.4 332.4 195.3C331.3 196.1 329.9 196.6 328.1 196.6C325.9 196.6 324.2 195.9 322.9 194.6C321.6 193.3 321 191.4 321 188.9C321 186.4 321.6 184.4 322.9 183.1C324.2 181.7 325.9 181 327.9 181C329.9 181 331.5 181.7 332.8 183C334.1 184.4 334.7 186.3 334.7 188.7C334.7 188.9 334.7 189.1 334.7 189.4H323.6C323.7 191 324.2 192.3 325 193.2C325.8 194.1 326.9 194.5 328.1 194.5C329 194.5 329.8 194.3 330.5 193.8C331.2 193.2 331.7 192.4 332.1 191.3ZM323.8 187.2H332.1C332 186 331.7 185 331.1 184.4C330.3 183.4 329.2 183 328 183C326.8 183 325.9 183.4 325.1 184.2C324.3 184.9 323.9 186 323.8 187.2Z" fill="#1E407A"></path><path d="M337.9 196.2V181.2H340.2V183.5C340.8 182.4 341.3 181.7 341.8 181.4C342.3 181.1 342.8 180.9 343.4 180.9C344.2 180.9 345.1 181.2 346 181.7L345.1 184C344.5 183.7 343.9 183.5 343.3 183.5C342.7 183.5 342.3 183.7 341.8 184C341.4 184.3 341 184.8 340.9 185.4C340.6 186.3 340.5 187.3 340.5 188.4V196.2H337.9V196.2Z" fill="#1E407A"></path><path d="M346.5 191.7L349 191.3C349.1 192.3 349.5 193.1 350.2 193.6C350.8 194.1 351.7 194.4 352.9 194.4C354.1 194.4 354.9 194.2 355.5 193.7C356.1 193.2 356.3 192.7 356.3 192C356.3 191.4 356 191 355.5 190.7C355.1 190.5 354.3 190.2 352.9 189.8C351 189.3 349.7 188.9 349 188.6C348.3 188.3 347.7 187.8 347.4 187.2C347 186.6 346.8 185.9 346.8 185.2C346.8 184.5 347 183.9 347.3 183.3C347.6 182.7 348 182.3 348.6 181.9C349 181.6 349.5 181.4 350.2 181.2C350.9 181 351.6 180.9 352.4 180.9C353.6 180.9 354.6 181.1 355.5 181.4C356.4 181.7 357 182.2 357.5 182.8C357.9 183.4 358.2 184.2 358.4 185.1L355.9 185.5C355.8 184.7 355.5 184.1 354.9 183.7C354.4 183.3 353.6 183.1 352.6 183.1C351.4 183.1 350.6 183.3 350.1 183.7C349.6 184.1 349.4 184.5 349.4 185C349.4 185.3 349.5 185.6 349.7 185.9C349.9 186.2 350.2 186.4 350.7 186.6C351 186.7 351.7 186.9 352.9 187.2C354.7 187.7 355.9 188.1 356.7 188.4C357.4 188.7 358 189.1 358.4 189.7C358.8 190.3 359 191 359 191.9C359 192.7 358.8 193.5 358.3 194.3C357.8 195 357.1 195.6 356.2 196C355.3 196.4 354.2 196.6 353 196.6C351 196.6 349.6 196.2 348.5 195.4C347.5 194.5 346.8 193.3 346.5 191.7Z" fill="#1E407A"></path><path d="M1 14.9L3.6 14.7C3.7 15.7 4 16.6 4.4 17.2C4.8 17.9 5.5 18.4 6.5 18.8C7.4 19.2 8.5 19.4 9.6 19.4C10.6 19.4 11.6 19.2 12.3 18.9C13.1 18.6 13.7 18.2 14.1 17.6C14.5 17.1 14.7 16.5 14.7 15.8C14.7 15.2 14.5 14.6 14.1 14.1C13.7 13.6 13.1 13.2 12.2 12.9C11.6 12.7 10.4 12.3 8.5 11.9C6.6 11.4 5.3 11 4.5 10.6C3.5 10.1 2.8 9.4 2.3 8.7C1.8 7.9 1.6 7.09999 1.6 6.09999C1.6 5.09999 1.9 4.09999 2.5 3.19999C3.1 2.29999 3.9 1.59999 5.1 1.09999C6.2 0.599995 7.5 0.399994 8.9 0.399994C10.4 0.399994 11.8 0.599995 12.9 1.09999C14.1 1.59999 15 2.29999 15.6 3.29999C16.2 4.29999 16.6 5.39999 16.6 6.59999L14 6.79999C13.9 5.49999 13.4 4.49999 12.6 3.89999C11.8 3.19999 10.6 2.89999 9 2.89999C7.4 2.89999 6.2 3.19999 5.4 3.79999C4.6 4.39999 4.3 5.09999 4.3 5.99999C4.3 6.69999 4.6 7.39999 5.1 7.79999C5.6 8.29999 7 8.79999 9.2 9.29999C11.4 9.79999 12.9 10.2 13.8 10.6C15 11.2 15.9 11.9 16.5 12.7C17.1 13.6 17.4 14.5 17.4 15.6C17.4 16.7 17.1 17.7 16.5 18.7C15.9 19.7 15 20.4 13.8 21C12.6 21.5 11.3 21.8 9.8 21.8C7.9 21.8 6.4 21.5 5.1 21C3.8 20.5 2.9 19.6 2.1 18.5C1.5 17.5 1.1 16.3 1 14.9Z" fill="#1E407A"></path><path d="M20 14C20 11.2 20.8 9.2 22.3 7.9C23.6 6.8 25.2 6.2 27 6.2C29.1 6.2 30.7 6.9 32 8.2C33.3 9.5 34 11.4 34 13.8C34 15.7 33.7 17.2 33.1 18.3C32.5 19.4 31.7 20.3 30.6 20.9C29.5 21.5 28.3 21.8 27 21.8C24.9 21.8 23.2 21.1 21.9 19.8C20.6 18.5 20 16.6 20 14ZM22.6 14C22.6 15.9 23 17.3 23.8 18.3C24.6 19.2 25.7 19.7 26.9 19.7C28.1 19.7 29.2 19.2 30 18.3C30.8 17.3 31.2 15.9 31.2 13.9C31.2 12.1 30.8 10.7 29.9 9.7C29.1 8.8 28 8.3 26.8 8.3C25.5 8.3 24.5 8.8 23.7 9.7C23 10.7 22.6 12.1 22.6 14Z" fill="#1E407A"></path><path d="M46.7 16.1L49.2 16.5C48.9 18.2 48.1999 19.5 47.0999 20.5C45.9999 21.5 44.6 21.9 43 21.9C41 21.9 39.2999 21.2 38.0999 19.9C36.8999 18.6 36.2 16.6 36.2 14.2C36.2 12.6 36.5 11.2 37 9.99999C37.5 8.79999 38.4 7.89999 39.4 7.29999C40.5 6.69999 41.7 6.39999 43 6.39999C44.6 6.39999 46 6.79999 47 7.59999C48 8.39999 48.7 9.59999 49 11.1L46.5 11.5C46.3 10.5 45.8999 9.79999 45.2999 9.29999C44.6999 8.79999 43.9999 8.49999 43.0999 8.49999C41.7999 8.49999 40.8 8.99999 40 9.89999C39.2 10.8 38.7999 12.3 38.7999 14.2C38.7999 16.2 39.2 17.7 39.9 18.6C40.7 19.5 41.7 20 42.9 20C43.9 20 44.7 19.7 45.4 19.1C46.1 18.2 46.5 17.3 46.7 16.1Z" fill="#1E407A"></path><path d="M51.4 3.7V0.800003H53.9V3.7H51.4ZM51.4 21.5V6.5H53.9V21.5H51.4Z" fill="#1E407A"></path><path d="M68 16.6L70.6 17C70.2 18.5 69.4 19.7 68.3 20.6C67.2 21.4 65.8 21.9 64 21.9C61.8 21.9 60.1 21.2 58.8 19.9C57.5 18.6 56.9 16.7 56.9 14.2C56.9 11.7 57.6 9.7 58.8 8.4C60.1 7 61.8 6.3 63.8 6.3C65.8 6.3 67.4 7 68.7 8.3C70 9.7 70.6 11.6 70.6 14C70.6 14.2 70.6 14.4 70.6 14.7H59.6C59.7 16.3 60.2 17.6 61 18.5C61.8 19.4 62.9 19.8 64.1 19.8C65 19.8 65.8 19.6 66.5 19.1C67.1 18.5 67.7 17.7 68 16.6ZM59.7 12.6H68C67.9 11.4 67.6 10.4 67 9.8C66.2 8.8 65.2 8.4 63.9 8.4C62.7 8.4 61.8 8.8 61 9.6C60.3 10.3 59.8 11.3 59.7 12.6Z" fill="#1E407A"></path><path d="M79.4 19.2L79.8 21.4C79.1 21.6 78.4 21.6 77.9 21.6C77 21.6 76.3 21.5 75.8 21.2C75.3 20.9 74.9 20.5 74.7 20C74.5 19.5 74.4 18.5 74.4 17V8.4H72.5V6.4H74.4V2.7L76.9 1.2V6.4H79.4V8.4H76.9V17.2C76.9 17.9 76.9 18.4 77 18.6C77.1 18.8 77.2 19 77.4 19.1C77.6 19.2 77.9 19.3 78.3 19.3C78.6 19.4 79 19.3 79.4 19.2Z" fill="#1E407A"></path><path d="M81.8 27.3L81.4 24.9C82 25.1 82.5 25.1 82.9 25.1C83.5 25.1 83.9 25 84.3 24.8C84.6 24.6 84.9 24.3 85.2 24C85.4 23.7 85.6 23.1 86 22.1C86.1 22 86.1 21.8 86.2 21.5L80.5 6.5H83.2L86.3 15.2C86.7 16.3 87.1 17.5 87.4 18.7C87.7 17.5 88.1 16.4 88.5 15.3L91.7 6.6H94.2L88.5 21.8C87.9 23.4 87.4 24.6 87.1 25.2C86.6 26 86.1 26.6 85.5 27C84.9 27.4 84.2 27.6 83.4 27.6C82.9 27.6 82.4 27.5 81.8 27.3Z" fill="#1E407A"></path><path d="M103.5 14C103.5 11.2 104.3 9.2 105.8 7.9C107.1 6.8 108.7 6.2 110.5 6.2C112.6 6.2 114.2 6.9 115.5 8.2C116.8 9.5 117.5 11.4 117.5 13.8C117.5 15.7 117.2 17.2 116.6 18.3C116 19.4 115.2 20.3 114.1 20.9C113 21.5 111.8 21.8 110.5 21.8C108.4 21.8 106.7 21.1 105.4 19.8C104.1 18.5 103.5 16.6 103.5 14ZM106.1 14C106.1 15.9 106.5 17.3 107.3 18.3C108.1 19.2 109.2 19.7 110.4 19.7C111.6 19.7 112.7 19.2 113.5 18.3C114.3 17.3 114.7 15.9 114.7 13.9C114.7 12.1 114.3 10.7 113.4 9.7C112.6 8.8 111.5 8.3 110.3 8.3C109 8.3 108 8.8 107.2 9.7C106.5 10.7 106.1 12.1 106.1 14Z" fill="#1E407A"></path><path d="M121.1 21.5V8.50001H118.9V6.50001H121.1V5.00001C121.1 4.00001 121.2 3.20001 121.4 2.80001C121.6 2.10001 122.1 1.60001 122.7 1.20001C123.3 0.800006 124.2 0.600006 125.3 0.600006C126 0.600006 126.8 0.700005 127.7 0.900005L127.3 3.10001C126.8 3.00001 126.3 3.00001 125.8 3.00001C125 3.00001 124.5 3.20001 124.2 3.50001C123.9 3.80001 123.7 4.40001 123.7 5.40001V6.8H126.6V8.8H123.7V21.8H121.1V21.5Z" fill="#1E407A"></path></g><defs><clipPath id="clip0_7_65"><rect width="359" height="197" fill="white"></rect></clipPath></defs></svg> 